<svg width="650" height="267" viewBox="0 0 650 267" fill="none" xmlns="http://www.w3.org/2000/svg">
<path d="M42.9871 110.192C35.7194 120.709 42.1527 135.189 54.8287 136.846L89.1734 141.334C94.7159 142.058 99.5536 145.448 102.127 150.41L117.072 179.233C123.002 190.668 138.972 191.678 146.295 181.081L180.571 131.481C183.183 127.702 184.162 123.031 183.289 118.521L170.906 54.551C169.114 45.2961 160.165 39.2411 150.908 41.0202L88.4412 53.025C84.0447 53.8699 80.1555 56.4068 77.6102 60.0899L42.9871 110.192Z" fill="#007DFC"/>
<path d="M74.7528 156.471C81.4288 157.189 87.2876 161.237 90.3194 167.228L102.428 191.155C112.072 210.213 88.8963 228.946 72.2837 215.52L54.5246 201.166C53.7379 200.531 52.9038 199.956 52.0294 199.447L36.6731 190.518C18.1804 179.764 27.4855 151.39 48.7551 153.676L74.7528 156.471Z" fill="#007DFC"/>
<path d="M252.772 147.277L259.899 154.599C257.826 157.147 255.105 159.221 251.735 160.819C248.409 162.417 244.737 163.216 240.72 163.216C236.962 163.216 233.549 162.633 230.482 161.467C227.415 160.257 224.758 158.573 222.512 156.413C220.309 154.253 218.603 151.704 217.393 148.767C216.184 145.786 215.579 142.525 215.579 138.983C215.579 135.484 216.205 132.266 217.458 129.328C218.711 126.347 220.46 123.777 222.707 121.617C224.996 119.458 227.674 117.794 230.741 116.628C233.851 115.419 237.264 114.814 240.979 114.814C244.996 114.814 248.625 115.613 251.865 117.211C255.148 118.81 257.826 120.883 259.899 123.432L252.772 130.754C251.433 128.853 249.727 127.363 247.653 126.283C245.623 125.16 243.398 124.598 240.979 124.598C238.387 124.598 236.055 125.224 233.981 126.477C231.951 127.687 230.352 129.371 229.186 131.531C228.02 133.691 227.437 136.175 227.437 138.983C227.437 141.791 228.02 144.296 229.186 146.499C230.352 148.659 231.951 150.365 233.981 151.618C236.055 152.827 238.387 153.432 240.979 153.432C243.398 153.432 245.623 152.871 247.653 151.748C249.727 150.624 251.433 149.134 252.772 147.277ZM299.21 163.216C295.538 163.216 292.169 162.612 289.102 161.402C286.035 160.193 283.356 158.508 281.067 156.348C278.821 154.188 277.071 151.64 275.819 148.702C274.609 145.722 274.004 142.482 274.004 138.983C274.004 135.484 274.609 132.266 275.819 129.328C277.071 126.391 278.821 123.842 281.067 121.682C283.356 119.522 286.035 117.838 289.102 116.628C292.169 115.419 295.538 114.814 299.21 114.814C302.882 114.814 306.251 115.419 309.318 116.628C312.385 117.838 315.042 119.522 317.288 121.682C319.577 123.842 321.327 126.391 322.536 129.328C323.789 132.266 324.416 135.484 324.416 138.983C324.416 142.482 323.789 145.722 322.536 148.702C321.327 151.64 319.577 154.188 317.288 156.348C315.042 158.508 312.385 160.193 309.318 161.402C306.251 162.612 302.882 163.216 299.21 163.216ZM299.21 153.432C301.888 153.432 304.221 152.827 306.208 151.618C308.238 150.365 309.815 148.659 310.938 146.499C312.104 144.296 312.687 141.791 312.687 138.983C312.687 136.175 312.104 133.691 310.938 131.531C309.815 129.371 308.238 127.687 306.208 126.477C304.221 125.224 301.888 124.598 299.21 124.598C296.575 124.598 294.242 125.224 292.212 126.477C290.182 127.687 288.583 129.371 287.417 131.531C286.294 133.691 285.732 136.175 285.732 138.983C285.732 141.791 286.294 144.296 287.417 146.499C288.583 148.659 290.182 150.365 292.212 151.618C294.242 152.827 296.575 153.432 299.21 153.432ZM373.341 156.478H365.177L347.423 119.544L353.837 119.35V162.18H343.081V115.851H355.522L371.268 148.832H367.38L383.125 115.851H395.307V162.18H384.421V119.35L391.095 119.544L373.341 156.478ZM426.068 162.18H414.923V115.851H434.297C437.753 115.851 440.798 116.477 443.433 117.73C446.068 118.982 448.12 120.732 449.589 122.978C451.057 125.181 451.792 127.773 451.792 130.754C451.792 133.691 451.057 136.283 449.589 138.529C448.12 140.775 446.068 142.525 443.433 143.778C440.798 145.03 437.753 145.657 434.297 145.657H425.42V136.391H434.297C436.198 136.391 437.709 135.894 438.833 134.901C439.956 133.864 440.517 132.482 440.517 130.754C440.517 129.026 439.956 127.665 438.833 126.671C437.709 125.635 436.198 125.116 434.297 125.116H426.068V162.18ZM498.94 153.756H470.041V144.49H498.94V153.756ZM508.789 162.18H496.802L482.935 124.015H485.786L471.855 162.18H460.257L478.335 115.851H490.711L508.789 162.18ZM521.215 154.534L528.537 147.147C529.53 148.486 530.804 149.652 532.36 150.646C533.958 151.64 535.664 152.395 537.478 152.914C539.293 153.432 541.085 153.691 542.857 153.691C544.714 153.691 546.269 153.519 547.522 153.173C548.818 152.784 549.79 152.266 550.438 151.618C551.086 150.927 551.41 150.128 551.41 149.22C551.41 147.925 550.697 146.845 549.271 145.981C547.846 145.074 545.189 144.339 541.301 143.778C537.154 143.173 533.742 142.266 531.064 141.056C528.385 139.803 526.398 138.248 525.102 136.391C523.807 134.49 523.159 132.266 523.159 129.717C523.159 126.823 523.979 124.252 525.621 122.006C527.262 119.76 529.509 118.01 532.36 116.758C535.254 115.462 538.537 114.814 542.209 114.814C546.572 114.814 550.438 115.613 553.807 117.211C557.22 118.81 560.049 120.883 562.295 123.432L555.038 130.818C553.569 128.788 551.669 127.19 549.336 126.024C547.047 124.857 544.714 124.274 542.338 124.274C540.006 124.274 538.105 124.706 536.636 125.57C535.167 126.434 534.433 127.557 534.433 128.939C534.433 129.717 534.714 130.386 535.275 130.948C535.88 131.51 536.917 132.006 538.386 132.438C539.854 132.827 541.885 133.237 544.476 133.669C548.494 134.274 551.842 135.225 554.52 136.52C557.241 137.816 559.272 139.458 560.611 141.445C561.993 143.432 562.684 145.786 562.684 148.508C562.684 151.532 561.82 154.145 560.092 156.348C558.364 158.551 555.989 160.257 552.965 161.467C549.984 162.633 546.528 163.216 542.597 163.216C537.932 163.216 533.763 162.417 530.092 160.819C526.463 159.177 523.504 157.082 521.215 154.534ZM577.678 154.534L585 147.147C585.994 148.486 587.268 149.652 588.823 150.646C590.422 151.64 592.128 152.395 593.942 152.914C595.756 153.432 597.549 153.691 599.32 153.691C601.178 153.691 602.733 153.519 603.985 153.173C605.281 152.784 606.253 152.266 606.901 151.618C607.549 150.927 607.873 150.128 607.873 149.22C607.873 147.925 607.161 146.845 605.735 145.981C604.309 145.074 601.653 144.339 597.765 143.778C593.618 143.173 590.206 142.266 587.527 141.056C584.849 139.803 582.862 138.248 581.566 136.391C580.27 134.49 579.622 132.266 579.622 129.717C579.622 126.823 580.443 124.252 582.084 122.006C583.726 119.76 585.972 118.01 588.823 116.758C591.717 115.462 595 114.814 598.672 114.814C603.035 114.814 606.901 115.613 610.271 117.211C613.683 118.81 616.513 120.883 618.759 123.432L611.502 130.818C610.033 128.788 608.132 127.19 605.8 126.024C603.51 124.857 601.178 124.274 598.802 124.274C596.469 124.274 594.568 124.706 593.1 125.57C591.631 126.434 590.897 127.557 590.897 128.939C590.897 129.717 591.177 130.386 591.739 130.948C592.344 131.51 593.381 132.006 594.849 132.438C596.318 132.827 598.348 133.237 600.94 133.669C604.957 134.274 608.305 135.225 610.983 136.52C613.705 137.816 615.735 139.458 617.074 141.445C618.457 143.432 619.148 145.786 619.148 148.508C619.148 151.532 618.284 154.145 616.556 156.348C614.828 158.551 612.452 160.257 609.428 161.467C606.448 162.633 602.992 163.216 599.061 163.216C594.396 163.216 590.227 162.417 586.555 160.819C582.927 159.177 579.968 157.082 577.678 154.534Z" fill="#2B262C"/>
<path d="M246.45 94.7188H235.305V57.1371H246.45V94.7188ZM260.381 57.785H221.374V48.3896H260.381V57.785ZM308.078 94.7188V48.3896H319.223V94.7188H308.078ZM289.157 94.7188H278.012V48.3896H289.157V94.7188ZM288.509 75.7335V66.4029H308.726V75.7335H288.509ZM372.729 94.7188H338.905V48.3896H372.729V57.6554H350.05V85.4529H372.729V94.7188ZM371.498 76.0575H349.402V66.7917H371.498V76.0575Z" fill="#2B262C"/>
<path d="M244.749 211.766H225.984V208.486H244.749V211.766ZM251.31 221.414H247.402L234.619 189.142H236.259L223.476 221.414H219.713L233.51 186.923H237.513L251.31 221.414ZM308.595 213.069L311.296 215.625C309.817 217.651 307.871 219.259 305.459 220.449C303.079 221.607 300.458 222.186 297.596 222.186C295.12 222.186 292.821 221.736 290.698 220.835C288.608 219.935 286.775 218.681 285.199 217.073C283.655 215.432 282.449 213.519 281.581 211.332C280.713 209.145 280.278 206.765 280.278 204.193C280.278 201.62 280.713 199.24 281.581 197.053C282.481 194.834 283.719 192.921 285.295 191.313C286.871 189.673 288.704 188.402 290.795 187.502C292.917 186.602 295.216 186.151 297.693 186.151C300.555 186.151 303.16 186.746 305.507 187.936C307.887 189.094 309.817 190.686 311.296 192.712L308.595 195.269C307.405 193.5 305.893 192.101 304.06 191.072C302.227 190.043 300.105 189.528 297.693 189.528C295.12 189.528 292.804 190.171 290.746 191.458C288.72 192.712 287.112 194.448 285.922 196.667C284.732 198.854 284.138 201.363 284.138 204.193C284.138 206.991 284.732 209.499 285.922 211.718C287.112 213.905 288.72 215.641 290.746 216.928C292.804 218.182 295.12 218.809 297.693 218.809C300.105 218.809 302.227 218.295 304.06 217.266C305.893 216.236 307.405 214.837 308.595 213.069ZM365.648 211.766H346.883V208.486H365.648V211.766ZM372.209 221.414H368.301L355.518 189.142H357.158L344.375 221.414H340.612L354.409 186.923H358.412L372.209 221.414ZM404.556 221.414V186.923H415.699C419.237 186.923 422.34 187.663 425.009 189.142C427.711 190.621 429.817 192.664 431.329 195.269C432.84 197.841 433.596 200.8 433.596 204.144C433.596 207.489 432.84 210.464 431.329 213.069C429.817 215.674 427.711 217.716 425.009 219.195C422.34 220.674 419.237 221.414 415.699 221.414H404.556ZM408.271 218.037H415.699C418.562 218.037 421.038 217.458 423.128 216.301C425.251 215.143 426.875 213.519 428 211.429C429.158 209.338 429.737 206.91 429.737 204.144C429.737 201.379 429.158 198.967 428 196.909C426.875 194.818 425.251 193.194 423.128 192.036C421.038 190.879 418.562 190.3 415.699 190.3H408.271V218.037ZM489.66 221.414H466.843V186.923H489.66V190.203H470.557V218.134H489.66V221.414ZM488.743 205.399H470.075V202.118H488.743V205.399ZM541.398 218.52H538.6L524.707 189.48H525.962V221.414H522.344V186.923H527.216L541.205 216.252H538.89L552.879 186.923H557.655V221.414H554.037V189.48H555.291L541.398 218.52ZM605.768 221.414H602.054V206.219L589.27 186.923H593.563L604.61 204.144H603.356L614.403 186.923H618.551L605.768 206.315V221.414Z" fill="#2B262C"/>
<path d="M396.109 21.9854C400.574 21.9856 404.193 25.6057 404.193 30.0703C404.193 34.5348 400.574 38.1541 396.109 38.1543C391.645 38.1543 388.025 34.5349 388.024 30.0703C388.024 25.6056 391.645 21.9854 396.109 21.9854Z" stroke="#2B262C" stroke-width="1.97161"/>
<path d="M395.173 33.6914H393.524V26.8379H396.39C396.901 26.8379 397.352 26.9306 397.742 27.1159C398.131 27.3012 398.435 27.56 398.652 27.8923C398.869 28.2182 398.978 28.6016 398.978 29.0425C398.978 29.4771 398.869 29.8605 398.652 30.1928C398.435 30.5251 398.131 30.7839 397.742 30.9692C397.352 31.1545 396.901 31.2472 396.39 31.2472H395.077V29.8765H396.39C396.671 29.8765 396.895 29.803 397.061 29.656C397.227 29.5026 397.31 29.2981 397.31 29.0425C397.31 28.7869 397.227 28.5856 397.061 28.4387C396.895 28.2853 396.671 28.2086 396.39 28.2086H395.173V33.6914ZM399.707 33.6914H397.713L395.422 30.4995H397.301L399.707 33.6914Z" fill="#2B262C"/>
</svg>
