<svg width="650" height="267" viewBox="0 0 650 267" fill="none" xmlns="http://www.w3.org/2000/svg">
<path d="M136.58 221.082C138.579 220.652 140.258 220.194 140.469 219.985C140.709 219.747 140.723 219.657 140.519 219.657C140.081 219.657 140.612 218.811 141.158 218.637C141.407 218.557 141.724 218.281 141.863 218.023C142.094 217.594 142.067 217.565 141.579 217.708C141.212 217.816 140.596 217.968 139.832 218.14C140.537 217.968 141.054 217.823 141.271 217.726C141.645 217.56 143.073 217.048 144.444 216.588C148.539 215.214 151.268 214.063 155.121 212.078C162.446 208.302 168.006 204.157 174.03 197.981C189.892 181.713 197.183 158.919 193.732 136.38C190.912 117.956 181.083 101.323 166.202 89.7963C163.255 87.5141 159.457 85.0324 158.908 85.0324C158.673 85.0324 157.564 85.3293 156.447 85.6896C148.36 88.3096 140.147 89.785 133.638 89.7895C132.493 89.7895 131.428 89.7578 130.42 89.6853C133.11 89.8077 137.328 89.6626 139.515 89.3317C141.337 89.0552 141.686 88.8716 141.097 88.4999C140.288 87.99 140.233 87.2217 140.247 76.2772C140.256 68.9001 140.186 65.5413 140.02 65.5413C139.857 65.5413 139.855 65.4076 140.009 65.1175C140.133 64.884 140.165 64.6257 140.081 64.5418C139.997 64.4557 140.383 64.4466 140.94 64.5169C141.808 64.6279 141.745 64.5871 140.478 64.2177C138.663 63.6897 137.103 63.2704 135.635 62.9417C136.056 63.0233 136.498 63.1095 136.965 63.2001C143.202 64.424 150.622 67.0893 157.136 70.4413L159.402 71.6085L159.516 77.0592L159.629 82.5121L162.89 84.6765C178.565 95.0793 189.802 110.795 194.398 128.738C195.44 132.81 195.853 135.122 196.46 140.326C196.75 142.807 196.746 151.035 196.453 154.384C195.876 160.979 194.461 166.972 191.606 174.916C191.078 176.386 188.458 181.803 187.157 184.115C185.47 187.116 182.52 191.478 180.215 194.386C177.685 197.575 171.682 203.581 168.468 206.14C159.042 213.637 148.095 218.73 136.58 221.082ZM123.26 58.1551C128.747 58.1868 134.096 58.7512 138.776 59.8617C139.857 60.1178 140.786 60.3286 140.843 60.3286C141.001 60.3286 140.523 59.4991 140.147 59.1251C139.891 58.8667 139.866 58.6197 140.034 58.0327C140.154 57.6134 140.254 55.0796 140.254 52.3984C140.256 49.7173 140.317 47.3036 140.39 47.0339C140.544 46.4559 141.149 46.2452 141.749 46.5647C142.52 46.9727 141.718 46.2588 140.773 45.6944C139.793 45.1097 135.816 42.943 131.773 40.7695C134.946 42.458 138.323 44.2485 140.138 45.2003C142.506 46.4446 144.954 47.741 145.577 48.0832C146.201 48.4277 148.392 49.604 150.45 50.7009C152.508 51.7978 156.127 53.7334 158.496 55.0003C160.864 56.2672 165.735 58.869 169.318 60.7796C172.901 62.6902 175.834 64.3174 175.834 64.3945C175.834 64.4693 172.799 66.0444 169.091 67.8916L162.349 71.2504L162.281 70.2282L162.213 69.2038L158.428 67.2819C149.759 62.876 141.518 60.0793 133.98 58.9823C130.458 58.4679 126.857 58.1959 123.26 58.1551ZM134.486 198.992C134.751 198.894 134.959 198.794 135.104 198.692C135.487 198.427 135.48 198.402 135.02 198.282L134.531 198.153L135.054 197.305C135.48 196.619 135.508 196.485 135.202 196.603C134.714 196.789 132.55 197.212 130.415 197.573C132.647 197.197 134.88 196.75 135.134 196.594C135.256 196.519 136.512 196.07 137.924 195.596C140.899 194.599 144.829 192.779 147.669 191.082C161.467 182.837 170.569 168.64 172.23 152.777C172.6 149.246 172.368 141.858 171.79 138.746C168.021 118.43 153.696 103.17 133.5 97.9508C132.201 97.6154 130.653 97.3321 128.951 97.1123C130.513 97.3072 131.949 97.552 133.101 97.8217C133.855 97.9984 134.814 98.2002 135.231 98.2727L135.99 98.4019L135.281 97.7401C134.476 96.9876 134.617 96.795 135.99 96.7769L136.94 96.7633L135.873 96.3576C135.49 96.2125 134.955 96.0561 134.318 95.8998C144.1 98.2206 152.408 102.998 159.638 110.443C163.847 114.779 166.576 118.654 169.275 124.128C173.18 132.053 174.889 139.947 174.623 148.832C174.438 155.019 173.651 159.425 171.761 164.887C169.103 172.563 164.844 179.26 158.838 185.207C151.998 191.979 143.76 196.635 134.486 198.992ZM48.3872 151.81C48.5119 152.408 48.6206 151.039 48.7294 147.472V147.449C48.7317 149.625 48.8314 151.81 49.0331 153.994C48.9175 153.108 48.8314 152.823 48.7317 152.886C48.5685 152.986 48.5708 156.741 48.7317 157.331C48.7838 157.519 48.9493 158.029 49.0989 158.468C49.2462 158.906 49.3504 159.926 49.33 160.735C49.2915 162.167 49.3527 162.648 49.6315 163.11C49.7062 163.235 49.7357 163.615 49.6972 163.955C49.6587 164.297 49.7221 164.635 49.8377 164.705C49.9533 164.778 50.0485 165.29 50.0485 165.843C50.0485 166.396 50.1459 166.849 50.2661 166.849C50.3862 166.849 50.4632 167.151 50.436 167.518C50.4088 167.885 50.3272 168.114 50.2502 168.028C50.1233 167.881 49.5317 165.265 49.5385 164.873C49.5408 164.776 49.4003 164.495 49.228 164.25C49.0558 164.003 48.9153 163.588 48.9153 163.323C48.9153 163.049 48.7702 162.845 48.5753 162.845C48.5391 162.845 48.5028 162.842 48.4733 162.842C48.4053 162.838 48.3532 162.833 48.3192 162.858C48.2195 162.929 48.292 163.244 48.598 164.506C48.4371 163.899 48.2829 163.42 48.2127 163.327C47.9906 163.035 47.2291 158.722 46.837 155.517C46.4472 152.354 46.4517 142.526 46.8415 139.313C47.2291 136.126 48.1968 130.796 48.4461 130.485C48.5073 130.408 48.5866 130.215 48.6592 129.982C48.2218 131.775 47.986 133.116 48.079 133.472C48.1583 133.78 48.19 133.755 48.2082 133.363C48.224 133.082 48.3419 132.853 48.4688 132.853C48.598 132.853 48.6637 132.572 48.6138 132.23C48.5617 131.888 48.6592 131.448 48.8269 131.256C48.9946 131.061 49.1623 130.705 49.2008 130.462C49.2915 129.873 49.568 129.454 49.8626 129.454C49.9963 129.454 50.0462 129.676 49.9759 129.964C49.9057 130.245 49.7289 130.984 49.5816 131.607C49.4365 132.23 49.2235 132.856 49.1079 132.998C48.9855 133.153 48.981 133.767 49.0989 134.512C49.3119 135.879 49.2144 137.11 48.8563 137.558C48.7317 137.717 48.5934 138.991 48.5504 140.391C48.5096 141.792 48.4189 143.499 48.3509 144.185C48.1628 146.112 48.1855 150.835 48.3872 151.81ZM127.238 170.303C126.143 168.091 125.1 165.918 124.921 165.474L124.749 165.043L124.926 165.417C125.123 165.832 125.363 166.17 125.458 166.167C125.556 166.167 125.644 165.442 125.658 164.558L125.683 162.949L124.751 163.142C124.559 163.182 124.232 163.219 123.829 163.25C124.162 163.185 124.479 163.103 124.776 163.003C127.632 162.054 129.354 161.002 131.374 158.978C132.817 157.532 133.366 157.118 133.697 157.224C133.937 157.299 134.132 157.451 134.132 157.562C134.132 157.902 131.99 160.349 130.941 161.208C130.39 161.657 129.413 162.348 128.772 162.743C127.961 163.241 127.632 163.579 127.691 163.851C127.981 165.168 129.388 174.161 129.316 174.233C129.266 174.283 128.332 172.513 127.238 170.303ZM70.4892 152.829C70.6523 152.934 70.8042 153.02 70.8246 153.02C70.8404 153.022 70.8518 151.735 70.854 149.931C70.9606 152.088 71.2076 154.257 71.5906 156.424C71.9351 158.362 72.3929 160.266 72.9595 162.131C72.3975 160.279 71.9396 158.389 71.5952 156.467C71.0965 153.686 70.9492 153.258 70.6569 153.729C70.5549 153.895 70.5617 154.139 70.6727 154.273C70.9288 154.581 71.0354 156.247 70.82 156.594C70.5481 157.036 69.9928 156.639 69.9883 156.002C69.986 155.533 69.9384 155.477 69.7662 155.744C69.6053 155.993 69.5463 155.826 69.5441 155.121C69.5418 154.59 69.4375 154.158 69.3129 154.158C69.0137 154.158 69.0251 154.359 69.4398 156.764C69.6098 157.748 69.8092 158.724 70.0359 159.692C69.4421 157.254 69.0092 154.883 68.9956 153.761C68.9911 153.231 68.8936 152.798 68.7826 152.798C68.667 152.798 68.6488 152.063 68.7395 151.098C68.8483 149.928 68.8211 149.398 68.6534 149.398C68.4924 149.398 68.4063 148.641 68.4063 147.245C68.4063 145.781 68.4902 145.092 68.6647 145.092C68.8437 145.092 68.8845 144.691 68.7939 143.789C68.6715 142.542 68.8981 140.512 69.3582 138.175C69.3854 138.229 69.5237 138.102 69.816 137.767C70.2194 137.305 70.3826 136.838 70.4098 136.067C70.4574 134.637 70.6591 133.76 70.9424 133.76C71.0761 133.76 71.1033 133.928 71.0082 134.157C70.6501 135.007 70.5957 135.648 70.8971 135.462C71.126 135.319 71.1509 135.56 71.0195 136.618C70.9288 137.352 70.7747 138.105 70.6795 138.293C70.437 138.762 70.1628 144.689 70.1787 149.038C70.19 151.744 70.267 152.689 70.4892 152.829ZM111.656 161.125C110.129 159.828 108.787 158.224 108.039 156.793C107.604 155.964 107.536 155.925 106.747 156.061C105.423 156.288 104.27 156.485 103.261 156.657C105.011 156.342 106.466 156.036 106.731 155.921C107.282 155.681 107.309 155.601 107.121 154.772C106.912 153.838 107.044 153.024 107.404 153.024C107.694 153.024 107.681 146.518 107.388 146.339C107.264 146.261 107.153 145.976 107.139 145.702C107.098 144.809 106.516 147.064 106.373 148.666C106.312 149.348 106.321 150.291 106.387 150.978C106.146 149.092 106.362 146.484 106.897 144.999C106.949 144.856 106.999 144.729 107.042 144.616C107.178 144.26 107.268 144.031 107.234 143.821C107.166 143.365 106.534 142.996 104.617 141.643C103.529 140.876 102.677 140.21 102.724 140.163C102.702 140.319 106.437 142.93 106.935 143.098C107.368 143.243 107.876 143.064 107.724 142.817C107.635 142.674 106.151 141.84 104.825 141.144C105.151 141.309 105.503 141.491 105.865 141.683L108.918 143.29L108.27 145.153C107.719 146.737 107.62 147.372 107.617 149.366C107.613 153.661 108.785 156.492 111.828 159.538C113.626 161.333 114.018 162.033 113.356 162.253C113.209 162.303 112.445 161.795 111.656 161.125ZM115.94 129.805C115.024 127.994 114.201 126.426 113.741 125.605C114.204 126.43 115.035 128.012 115.958 129.837C118.265 134.401 118.498 134.771 118.986 134.667C120.153 134.417 123.652 134.605 125.066 134.993C125.146 135.016 125.22 135.036 125.295 135.056C126.755 135.46 127.215 135.584 127.482 135.414C127.618 135.326 127.707 135.161 127.852 134.916C128.074 134.54 128.382 134.098 128.534 133.939C128.688 133.778 129.144 133.193 129.547 132.638C129.95 132.085 130.279 131.704 130.279 131.793C130.279 131.933 127.829 136.94 127.677 137.112C127.646 137.146 126.845 136.917 125.9 136.6C123.648 135.843 121.458 135.65 119.271 136.022C120.087 135.877 120.908 135.8 121.712 135.8C122.868 135.8 122.963 135.761 122.938 135.29C122.913 134.8 122.827 134.778 120.667 134.746L118.419 134.714L115.94 129.805ZM120.06 159.948C121.773 160.116 123.763 159.939 124.713 159.443C125.529 159.017 125.565 158.962 125.118 158.82C124.849 158.736 124.244 158.772 123.77 158.903C122.94 159.135 121.689 159.187 120.524 159.076C120.978 159.107 121.467 159.107 122.007 159.08C124.25 158.967 126.274 158.076 128.117 156.392C129.024 155.565 129.45 155.311 129.703 155.454C129.984 155.61 129.81 155.889 128.797 156.911C127.392 158.328 125.812 159.273 124.08 159.735C122.956 160.034 121.424 160.098 120.06 159.948ZM120.221 140.07C121.408 139.789 121.653 139.199 120.343 139.199C119.507 139.199 118.414 139.469 117.195 139.97C119.795 138.887 122.152 138.762 124.572 139.569C125.839 139.993 126.154 140.242 125.828 140.568C125.667 140.729 125.397 140.729 124.962 140.564C123.833 140.133 121.612 139.911 120.221 140.07ZM113.587 156.984C113.383 156.768 113.19 156.551 113.011 156.327C113.956 157.324 113.879 156.574 112.803 154.307C112.631 153.945 112.49 153.641 112.37 153.371C112.447 153.543 112.535 153.727 112.633 153.933C113.082 154.867 113.87 156.082 114.385 156.633C115.319 157.63 115.568 158.237 115.047 158.237C114.895 158.237 114.237 157.673 113.587 156.984ZM122.582 152.465C122.474 152.143 122.331 151.569 122.249 151.125C122.104 150.334 122.131 150.259 122.501 150.402C122.832 150.527 122.857 150.502 122.63 150.273C122.233 149.872 122.276 149.677 122.8 149.511C123.487 149.294 123.357 148.87 122.657 149.045C122.616 149.056 122.58 149.065 122.546 149.072C122.598 149.051 122.659 149.024 122.723 148.99C122.952 148.87 123.6 148.705 124.16 148.625L125.18 148.48L123.877 149.169C123.16 149.548 122.573 149.904 122.573 149.958C122.573 150.015 123.031 150.327 123.593 150.656C124.153 150.985 124.613 151.295 124.613 151.343C124.613 151.393 124.09 151.225 123.45 150.973C122.811 150.722 122.256 150.547 122.217 150.586C122.147 150.654 122.349 151.66 122.582 152.465ZM50.6196 127.176C50.538 127.432 50.3839 127.641 50.2751 127.641C49.9646 127.641 49.7742 126.779 49.9941 126.385C50.1731 126.066 50.2275 126.063 50.4814 126.369C50.6377 126.56 50.6989 126.92 50.6196 127.176ZM49.4365 137.318C49.6337 135.752 49.8672 134.338 50.1414 133.051C52.9381 119.924 58.6041 108.705 67.425 98.8325C57.5797 109.854 51.4287 123.228 49.4365 137.318ZM71.0988 158.974C71.1147 159.191 71.024 159.37 70.8994 159.37C70.7747 159.37 70.6841 158.885 70.6999 158.294C70.7226 157.333 70.7453 157.29 70.8994 157.897C70.9946 158.271 71.0852 158.756 71.0988 158.974ZM93.3027 102.57C99.0526 98.905 105.453 96.4233 112.161 95.2244C105.544 96.4369 99.141 98.9186 93.3027 102.57ZM131.299 219.79C131.446 219.77 131.6 219.747 131.759 219.722C131.551 219.756 131.358 219.784 131.186 219.808C129.028 220.117 125.368 220.257 121.694 220.241C125.465 220.176 129.846 219.994 131.299 219.79ZM69.0908 140.049C69.0885 140.206 69.1882 140.333 69.3129 140.333C69.4375 140.333 69.5373 140.052 69.535 139.709C69.5327 139.224 69.4851 139.161 69.3129 139.426C69.1928 139.614 69.0908 139.893 69.0908 140.049ZM123.446 200.474C125.98 200.36 128.586 200.125 130.71 199.812C130.229 199.9 129.746 199.982 129.259 200.057C127.979 200.256 125.746 200.404 123.446 200.474ZM68.8664 141.817C68.8732 142.404 68.9027 142.434 69.1157 142.066C69.2902 141.767 69.288 141.577 69.1089 141.398C68.9276 141.216 68.8619 141.33 68.8664 141.817ZM116.794 151.211C116.871 151.087 117.086 150.985 117.274 150.985C117.46 150.985 117.551 151.087 117.474 151.211C117.397 151.336 117.182 151.438 116.993 151.438C116.808 151.438 116.717 151.336 116.794 151.211ZM47.5554 136.026C47.5554 136.45 47.6166 136.509 47.8274 136.298C48.0382 136.088 48.0382 135.965 47.8274 135.754C47.6166 135.544 47.5554 135.603 47.5554 136.026ZM72.0507 128.577C72.504 127.348 72.9777 126.208 73.4536 125.229C75.5251 120.973 77.4334 117.795 79.8358 114.772C76.6152 118.929 73.9227 123.729 72.0507 128.577ZM113.696 219.91C113.059 219.852 112.481 219.784 111.985 219.709C107.923 219.092 104.363 218.324 100.941 217.293C102.575 217.78 104.268 218.213 106.092 218.623C107.905 219.029 111.103 219.561 113.696 219.91ZM51.6939 167.912C54.1303 176.06 57.9038 183.609 62.806 190.304C57.8676 183.575 54.0872 176.01 51.6939 167.912ZM162.451 198.817C162.439 198.529 162.369 198.352 162.235 198.352C162.111 198.352 162.009 198.697 162.009 199.121C162.009 199.545 161.823 200.066 161.524 200.58C161.83 200.021 162.009 199.431 162.009 198.894C162.009 198.346 162.111 197.899 162.235 197.899C162.405 197.899 162.473 198.284 162.451 198.817ZM73.7097 130.485C75.5931 125.132 78.3264 120.259 82.0093 115.629C78.3762 120.198 75.5954 125.207 73.7097 130.485ZM62.806 190.304C69.6914 199.683 78.825 207.436 89.5904 212.744C78.8182 207.434 69.6982 199.715 62.806 190.304ZM73.1272 168.88C74.5256 172.021 76.2549 175.065 78.3128 178.014C76.2753 175.163 74.5596 172.139 73.1272 168.88ZM96.7363 157.605C96.7363 157.621 96.7431 157.634 96.759 157.646C96.6026 157.627 96.6548 157.562 96.7545 157.469C96.8066 157.421 99.0526 156.306 101.747 154.992L106.645 152.605L106.627 152.487L106.647 152.607L101.691 155.021C98.9665 156.351 96.7363 157.512 96.7363 157.605ZM128.482 222.274C126.145 222.485 123.795 222.585 121.44 222.571C120.874 222.567 120.23 222.553 119.557 222.533C122.508 222.601 125.597 222.51 128.482 222.274ZM127.34 89.3159C125.334 88.9668 123.469 88.4093 121.483 87.5957C119.842 86.9225 118.625 86.3129 117.157 85.3179C117.438 85.4992 117.737 85.6851 118.084 85.8959C120.615 87.4461 123.999 88.6858 127.34 89.3159ZM48.8835 165.675C49.8332 169.503 51.0661 173.211 52.5891 176.799C51.0253 173.141 49.7765 169.41 48.8835 165.675ZM117.274 136.52C116.663 136.72 116.051 136.965 115.434 137.255C114.296 137.787 113.075 138.596 112.069 139.44C113.485 138.159 115.316 137.148 117.274 136.52ZM89.6334 189.72C91.5486 191.152 93.5362 192.451 95.585 193.613C93.4138 192.401 91.4896 191.145 89.6334 189.72ZM122.319 148.333C122.567 147.465 122.528 147.358 122.199 147.982C122.1 148.172 121.991 148.347 121.898 148.478C121.973 148.358 122.052 148.201 122.122 148.032C122.279 147.653 122.458 147.395 122.521 147.458C122.582 147.519 122.505 147.882 122.347 148.265C122.338 148.288 122.329 148.31 122.319 148.333ZM82.39 183.022C83.947 184.684 85.7556 186.447 87.3625 187.861C86.3064 186.946 85.2502 185.957 84.1601 184.867C83.5504 184.26 82.9612 183.643 82.39 183.022ZM70.9764 143.039C71.0127 142.361 71.058 141.81 71.1033 141.466C71.2053 140.727 71.3187 139.997 71.4433 139.276C71.2416 140.523 71.0852 141.779 70.9764 143.039ZM48.802 129.408C49.0105 128.384 49.6994 126.018 50.5063 123.561C49.849 125.565 49.2439 127.657 48.802 129.408ZM130.166 62.0805C128.307 61.9105 126.263 61.8357 123.722 61.8131C126.478 61.8289 128.328 61.8901 130.166 62.0805ZM111.391 153.414C110.91 152.014 110.743 150.452 110.87 148.689C110.75 150.359 110.942 152.005 111.391 153.414ZM51.6939 167.912C51.3562 166.777 51.0412 165.628 50.7556 164.47C50.5969 163.831 50.4179 163.003 50.2389 162.11C50.6468 164.071 51.1318 166.006 51.6939 167.912ZM69.4353 137.783C69.6075 136.94 69.8092 136.058 70.0336 135.165C70.02 135.226 70.0064 135.285 69.9928 135.346C69.773 136.355 69.5441 137.355 69.4353 137.783ZM84.0264 110.11C84.3505 109.786 84.6814 109.457 85.0236 109.126C85.6332 108.53 86.2565 107.955 86.8934 107.395C85.9528 108.245 84.9579 109.188 84.0264 110.11ZM117.018 141.11C117.907 140.652 118.825 140.305 119.545 140.187C118.72 140.369 117.843 140.695 117.018 141.11ZM117.374 162.779C118.059 162.985 118.757 163.142 119.448 163.253C118.768 163.176 118.183 163.035 117.374 162.779ZM132.589 95.5167C131.247 95.2493 129.708 94.9955 128.221 94.8028C129.624 94.9751 131.029 95.2017 132.432 95.485C132.484 95.4963 132.536 95.5077 132.589 95.5167ZM113.521 165.002C114.17 163.67 114.84 162.335 114.985 162.133C114.863 162.312 114.185 163.654 113.521 165.002ZM122.646 153.249C122.662 153.237 122.678 153.224 122.693 153.208C122.737 153.163 122.734 153.02 122.698 152.843C122.804 153.213 122.764 153.326 122.646 153.249ZM112.948 143.517C112.841 143.342 113.32 142.762 113.997 142.13C113.331 142.764 112.846 143.351 112.948 143.517ZM122.276 149.115C122.147 149.113 122.127 149.04 122.168 148.861C122.154 149.006 122.19 149.09 122.276 149.115ZM114.999 162.117L115.001 162.115C115.04 162.072 115.727 162.253 116.592 162.53C115.724 162.258 115.049 162.081 114.999 162.117ZM121.671 148.718C121.669 148.718 121.667 148.718 121.664 148.718C121.583 148.718 121.279 148.208 120.987 147.585C121.272 148.195 121.576 148.696 121.671 148.718ZM49.4751 157.757C49.4003 157.247 49.3368 156.782 49.2915 156.392C49.3482 156.848 49.4093 157.301 49.4751 157.757ZM121.234 150.985C121.107 150.994 120.778 151.438 120.479 152.002C120.781 151.433 121.109 150.985 121.229 150.985C121.232 150.985 121.232 150.985 121.234 150.985ZM121.766 151.703C121.823 151.816 121.88 151.937 121.936 152.061C121.986 152.179 122.034 152.288 122.077 152.385C122.038 152.301 121.998 152.211 121.957 152.118C121.896 151.973 121.832 151.832 121.766 151.703ZM115.615 163.679C115.618 163.679 115.618 163.679 115.62 163.679C115.767 163.681 116.549 163.901 117.361 164.171C116.558 163.903 115.779 163.686 115.615 163.679Z" fill="#E1BB59"/>
<path d="M123.259 58.1533C115.576 58.0672 107.904 59.0463 101.051 61.0407C92.8283 63.4318 81.6754 68.3068 80.9864 69.8117C80.864 70.0792 80.7099 70.2967 80.6464 70.2967C80.583 70.2945 78.9489 69.4808 77.0179 68.4859C75.0869 67.4909 73.4438 66.6773 73.3713 66.675C73.1582 66.6705 72.9384 73.0209 72.9384 79.1742V84.804H74.1849C75.7057 84.804 76.338 85.3026 76.338 86.5038C76.338 86.9389 76.3901 87.297 76.4513 87.297C76.5148 87.297 77.9743 86.3542 79.6923 85.2006C81.4125 84.047 82.9921 83.0022 83.2029 82.8775C83.5361 82.6781 83.6018 81.9664 83.7355 77.1617L83.8874 71.6702L86.2898 70.503C95.0857 66.224 102.746 63.7604 111.712 62.3281C114.595 61.868 115.782 61.8068 121.779 61.8068C122.477 61.8068 123.121 61.8068 123.722 61.8113C126.262 61.834 128.307 61.9088 130.165 62.0788C131.79 62.2465 133.408 62.5162 135.634 62.94C137.102 63.2686 138.662 63.6879 140.477 64.216C141.744 64.5854 141.808 64.6262 140.939 64.5151C140.382 64.4449 139.997 64.4539 140.081 64.5401C140.164 64.6239 140.133 64.8823 140.008 65.1157C139.854 65.4058 139.856 65.5395 140.019 65.5395C140.185 65.5395 140.255 68.8984 140.246 76.2755C140.232 87.2199 140.287 87.9883 141.096 88.4982C141.685 88.8699 141.336 89.0535 139.514 89.33C137.327 89.6609 133.109 89.8059 130.419 89.6835C129.338 89.6065 128.32 89.4863 127.339 89.3141C123.998 88.684 120.614 87.4443 118.083 85.8941C117.736 85.6833 117.437 85.4975 117.156 85.3162C115.828 84.4164 114.293 83.1993 112.056 81.3386C110.062 79.6774 108.5 78.5872 107.193 77.939L105.266 76.9849L102.304 76.9985C99.6955 77.0075 99.1335 77.0823 97.5832 77.6195C95.0721 78.4898 91.1897 80.4819 87.8332 82.6191C86.2399 83.6345 83.9463 85.0918 82.7338 85.8578C81.5212 86.6261 79.588 87.952 78.4344 88.8042L76.3403 90.3566L76.338 92.7817C76.338 95.4583 76.0932 96.3014 75.2546 96.5122C74.951 96.587 73.5503 96.5983 72.1383 96.5371L69.5728 96.4238L67.4242 98.8307C58.6034 108.703 52.9374 119.922 50.1407 133.049C49.8664 134.336 49.633 135.75 49.4358 137.316C48.9644 140.662 48.7264 144.045 48.7287 147.447V147.47C48.6199 151.037 48.5111 152.406 48.3865 151.808C48.1847 150.833 48.1621 146.11 48.3502 144.184C48.4182 143.497 48.5088 141.79 48.5496 140.39C48.5927 138.989 48.731 137.715 48.8556 137.557C49.2137 137.108 49.3111 135.877 49.0981 134.511C48.9803 133.765 48.9848 133.151 49.1072 132.997C49.2228 132.854 49.4358 132.228 49.5809 131.605C49.7282 130.982 49.9049 130.243 49.9752 129.962C50.0455 129.674 49.9956 129.452 49.8619 129.452C49.5673 129.452 49.2907 129.871 49.2001 130.461C49.1616 130.703 48.9939 131.059 48.8261 131.254C48.6584 131.447 48.561 131.886 48.6131 132.228C48.663 132.571 48.5972 132.852 48.468 132.852C48.3411 132.852 48.2233 133.081 48.2074 133.362C48.1893 133.754 48.1575 133.779 48.0782 133.47C47.9853 133.115 48.221 131.773 48.6584 129.98C48.7083 129.817 48.7559 129.631 48.7921 129.452C48.7944 129.436 48.7967 129.423 48.8012 129.407C49.2432 127.655 49.8483 125.563 50.5055 123.559C53.8938 113.259 59.3626 104.152 67.2406 95.6963L69.5388 93.2282V89.3685C69.5388 85.638 69.5546 85.4975 70.0419 85.1575C70.3184 84.9626 70.7286 84.804 70.9508 84.804C71.336 84.804 71.3542 84.2918 71.2975 75.1151L71.2386 65.4262L69.3688 64.4313C68.3399 63.8828 67.499 63.3706 67.499 63.2913C67.499 63.153 121.736 35.623 122.008 35.623C122.079 35.623 125.22 37.2685 128.984 39.281C129.861 39.7502 130.809 40.2533 131.772 40.7678C135.815 42.9413 139.793 45.1079 140.772 45.6927C141.717 46.257 142.519 46.9709 141.749 46.563C141.148 46.2434 140.543 46.4542 140.389 47.0321C140.316 47.3018 140.255 49.7155 140.253 52.3967C140.253 55.0778 140.153 57.6117 140.033 58.031C139.865 58.618 139.89 58.865 140.146 59.1234C140.522 59.4973 141.001 60.3268 140.842 60.3268C140.785 60.3268 139.856 60.1161 138.775 59.8599C134.095 58.7494 128.746 58.1851 123.259 58.1533ZM114.59 222.25C100.185 220.883 86.4439 215.31 74.8648 206.136C71.5536 203.511 65.5952 197.535 62.9277 194.158C58.7077 188.818 55.2038 182.914 52.5884 176.797C51.0653 173.209 49.8324 169.502 48.8828 165.674C48.8511 165.538 48.8193 165.399 48.7853 165.261C48.7264 164.998 48.6607 164.742 48.5972 164.504C48.2913 163.242 48.2187 162.927 48.3185 162.857C48.3525 162.832 48.4046 162.836 48.4726 162.841C48.502 162.841 48.5383 162.843 48.5746 162.843C48.7695 162.843 48.9145 163.047 48.9145 163.321C48.9145 163.586 49.055 164.001 49.2273 164.248C49.3995 164.493 49.5401 164.774 49.5378 164.871C49.531 165.263 50.1225 167.879 50.2494 168.026C50.3265 168.112 50.4081 167.883 50.4353 167.516C50.4625 167.149 50.3854 166.848 50.2653 166.848C50.1452 166.848 50.0477 166.394 50.0477 165.841C50.0477 165.288 49.9525 164.776 49.837 164.704C49.7214 164.633 49.6579 164.296 49.6964 163.954C49.735 163.614 49.7055 163.233 49.6307 163.108C49.3519 162.646 49.2908 162.165 49.3293 160.733C49.3497 159.924 49.2454 158.904 49.0981 158.467C48.9485 158.027 48.7831 157.517 48.731 157.329C48.57 156.74 48.5678 152.984 48.731 152.884C48.8307 152.821 48.9168 153.107 49.0324 153.993C49.1049 154.79 49.191 155.59 49.2908 156.391C49.3361 156.78 49.3995 157.245 49.4743 157.755C49.5854 158.521 49.7078 159.285 49.8438 160.048C49.9661 160.737 50.0976 161.424 50.2381 162.109C50.4172 163.002 50.5962 163.829 50.7548 164.468C51.0404 165.626 51.3554 166.775 51.6931 167.911H51.6954C54.1295 176.058 57.9031 183.608 62.8053 190.303C69.6974 199.713 78.8174 207.432 89.5896 212.742L89.5964 212.747C93.685 214.762 97.1572 216.167 100.94 217.291C104.362 218.322 107.923 219.091 111.984 219.707C112.48 219.782 113.058 219.85 113.695 219.909C114.554 220.024 115.347 220.119 116 220.185C116.913 220.274 119.166 220.283 121.693 220.24C125.367 220.255 129.027 220.115 131.185 219.807C131.357 219.782 131.55 219.755 131.758 219.721C134.183 219.353 137.791 218.635 139.831 218.139C140.595 217.966 141.211 217.815 141.579 217.706C142.066 217.563 142.093 217.592 141.862 218.021C141.724 218.279 141.406 218.556 141.157 218.635C140.611 218.809 140.081 219.655 140.518 219.655C140.722 219.655 140.708 219.746 140.468 219.983C140.257 220.192 138.578 220.65 136.579 221.08C133.907 221.627 131.203 222.026 128.481 222.273C125.596 222.508 122.507 222.599 119.556 222.531C117.788 222.477 115.83 222.368 114.59 222.25ZM70.4884 152.828C70.2663 152.687 70.1892 151.742 70.1779 149.036C70.162 144.687 70.4363 138.76 70.6788 138.291C70.774 138.103 70.9281 137.35 71.0187 136.616C71.1502 135.558 71.1253 135.318 70.8964 135.46C70.5949 135.646 70.6493 135.005 71.0074 134.155C71.1026 133.926 71.0754 133.758 70.9417 133.758C70.6584 133.758 70.4567 134.635 70.4091 136.065C70.3819 136.836 70.2187 137.303 69.8153 137.765C69.5229 138.101 69.3847 138.228 69.3575 138.173C69.3824 138.044 69.4073 137.913 69.4345 137.781C69.5433 137.353 69.7722 136.353 69.9921 135.345C70.0057 135.284 70.0193 135.225 70.0329 135.163C70.5904 132.94 71.2907 130.635 72.05 128.575C73.922 123.727 76.6145 118.927 79.835 114.77C81.0725 113.216 82.4391 111.704 84.0256 110.108C84.9571 109.186 85.9521 108.243 86.8926 107.393C88.9165 105.607 91.0583 103.998 93.302 102.568C99.1403 98.9168 105.543 96.4351 112.161 95.2226C117.383 94.2889 122.79 94.1325 128.22 94.8011C129.707 94.9937 131.246 95.2475 132.588 95.515C133.17 95.6351 133.746 95.762 134.317 95.898C134.954 96.0544 135.489 96.2108 135.872 96.3558L136.939 96.7615L135.99 96.7751C134.616 96.7932 134.476 96.9859 135.28 97.7383L135.99 98.4001L135.23 98.2709C134.813 98.1984 133.855 97.9967 133.1 97.8199C131.951 97.5502 130.514 97.3077 128.953 97.1105H128.95C127.316 96.8997 125.539 96.7479 123.706 96.6686C112.072 96.1564 100.439 99.7985 90.92 106.929C88.5562 108.701 83.9123 113.231 82.0085 115.627C78.3256 120.257 75.5923 125.13 73.709 130.483C72.6891 133.343 71.9298 136.283 71.4426 139.275C71.3179 139.995 71.2046 140.725 71.1026 141.464C71.0573 141.808 71.0119 142.359 70.9757 143.037C70.7785 145.317 70.7377 147.617 70.8533 149.929C70.851 151.733 70.8397 153.02 70.8238 153.018C70.8034 153.018 70.6516 152.932 70.4884 152.828ZM116.587 200.377C110.139 199.706 103.716 197.802 97.8779 194.833C97.0824 194.428 96.3186 194.022 95.5843 193.612C93.5354 192.449 91.5478 191.15 89.6327 189.718C88.8689 189.131 88.1142 188.515 87.3618 187.86C85.7549 186.445 83.9463 184.682 82.3893 183.021C80.9048 181.405 79.5495 179.739 78.312 178.012C76.2541 175.063 74.5249 172.02 73.1265 168.878C72.4398 167.317 71.8188 165.701 71.259 164.024C70.8306 162.739 70.4023 161.2 70.0351 159.688C69.8085 158.723 69.609 157.746 69.4391 156.762C69.0243 154.358 69.013 154.156 69.3121 154.156C69.4368 154.156 69.541 154.589 69.5433 155.119C69.5456 155.824 69.6045 155.992 69.7654 155.742C69.9377 155.475 69.9853 155.532 69.9875 156.001C69.9921 156.638 70.5473 157.034 70.8193 156.592C71.0346 156.245 70.9281 154.58 70.672 154.271C70.5609 154.138 70.5541 153.893 70.6561 153.727C70.9485 153.256 71.0958 153.684 71.5944 156.465C71.9389 158.387 72.3967 160.275 72.9565 162.125L72.9588 162.129C74.6631 167.752 77.3488 173.012 80.8481 177.688C85.0432 183.295 90.4055 188.059 96.654 191.606C97.0869 191.853 97.5243 192.093 97.9663 192.327C98.4218 192.569 98.8796 192.803 99.342 193.031C107.957 197.274 117.5 199.049 126.684 198.11C127.593 198.018 129.005 197.809 130.414 197.571C132.549 197.211 134.714 196.787 135.201 196.601C135.507 196.483 135.48 196.617 135.054 197.304L134.53 198.151L135.02 198.28C135.48 198.401 135.487 198.425 135.104 198.691C134.958 198.793 134.75 198.892 134.485 198.99C133.245 199.305 131.987 199.579 130.709 199.81C128.585 200.123 125.979 200.359 123.445 200.472C120.803 200.551 118.069 200.531 116.587 200.377ZM108.988 141.931C108.503 141.625 108.918 140.877 110.518 139.168C111.612 137.996 113.969 136.285 114.926 135.968C115.032 135.932 114.699 133.47 114.187 130.499C113.675 127.528 113.301 125.051 113.355 124.994C113.373 124.976 113.514 125.2 113.74 125.604C114.2 126.424 115.023 127.993 115.939 129.803L118.418 134.712L120.667 134.744C122.826 134.776 122.913 134.799 122.937 135.288C122.962 135.759 122.867 135.798 121.711 135.798C120.907 135.798 120.086 135.875 119.27 136.02C118.606 136.133 117.94 136.299 117.274 136.519H117.271C115.316 137.147 113.484 138.157 112.068 139.438C111.222 140.145 110.531 140.877 110.169 141.491C109.763 142.18 109.523 142.269 108.988 141.931ZM96.7356 157.603C96.7356 157.51 98.9657 156.35 101.69 155.019L106.647 152.606L106.626 152.486L106.431 151.282C106.415 151.182 106.4 151.08 106.386 150.976C106.32 150.289 106.311 149.347 106.372 148.664C106.515 147.062 107.098 144.807 107.138 145.7C107.152 145.974 107.263 146.26 107.388 146.337C107.68 146.516 107.694 153.023 107.404 153.023C107.043 153.023 106.912 153.836 107.12 154.77C107.308 155.6 107.281 155.679 106.73 155.919C106.465 156.035 105.01 156.341 103.261 156.656C98.6122 157.447 97.1186 157.682 96.7583 157.644C96.7424 157.633 96.7356 157.619 96.7356 157.603ZM117.373 162.777C118.183 163.033 118.767 163.174 119.447 163.251C121.004 163.498 122.536 163.5 123.828 163.249C124.232 163.217 124.558 163.181 124.751 163.14L125.682 162.947L125.657 164.556C125.644 165.44 125.555 166.166 125.458 166.166C125.363 166.168 125.122 165.83 124.925 165.415L124.748 165.041L124.596 164.663L121.714 164.658C119.379 164.656 118.554 164.563 117.36 164.169C116.548 163.899 115.767 163.679 115.619 163.677C115.617 163.677 115.617 163.677 115.615 163.677H115.612C115.461 163.677 114.649 164.64 113.811 165.821C112.972 167.002 112.247 167.931 112.202 167.886C112.165 167.849 112.829 166.424 113.521 165.001C114.185 163.652 114.862 162.31 114.985 162.131C114.991 162.125 114.996 162.118 114.998 162.115C115.048 162.079 115.724 162.256 116.592 162.528C116.712 162.564 116.834 162.605 116.956 162.646C117.095 162.691 117.235 162.736 117.373 162.777ZM111.39 153.412C110.941 152.003 110.749 150.357 110.869 148.687C110.987 147.082 111.553 145.086 111.889 145.095C112.512 145.108 112.571 145.507 112.12 146.688C111.732 147.706 111.664 148.302 111.735 150.079C111.798 151.731 111.884 152.279 112.369 153.369C112.489 153.639 112.63 153.943 112.802 154.305C113.879 156.572 113.956 157.322 113.011 156.325C112.29 155.432 111.753 154.466 111.39 153.412ZM119.626 153.163C119.626 153.118 119.885 152.497 120.197 151.785L120.771 150.491L120.027 150.647C118.901 150.888 118.896 150.888 118.794 150.613C118.742 150.473 118.933 150.294 119.221 150.219C120.179 149.963 120.429 149.702 120.093 149.301C119.842 148.995 119.864 148.943 120.259 148.943C120.703 148.943 120.707 148.902 120.401 147.753C120.374 147.647 120.347 147.549 120.322 147.459C120.118 146.695 120.068 146.504 120.127 146.461C120.145 146.446 120.177 146.448 120.22 146.448C120.234 146.45 120.25 146.45 120.268 146.45C120.372 146.45 120.694 146.96 120.986 147.583C121.278 148.207 121.582 148.716 121.664 148.716C121.666 148.716 121.668 148.716 121.671 148.716C121.725 148.716 121.809 148.624 121.897 148.476C121.99 148.345 122.099 148.17 122.199 147.98C122.527 147.357 122.566 147.463 122.319 148.331C122.23 148.556 122.178 148.73 122.167 148.859C122.126 149.038 122.146 149.111 122.276 149.113C122.339 149.131 122.428 149.115 122.545 149.07C122.579 149.063 122.616 149.054 122.656 149.043C123.357 148.868 123.486 149.292 122.799 149.51C122.276 149.675 122.233 149.87 122.629 150.271C122.856 150.5 122.831 150.525 122.5 150.4C122.131 150.258 122.103 150.332 122.248 151.123C122.33 151.568 122.473 152.141 122.582 152.463C122.609 152.558 122.638 152.651 122.666 152.739C122.677 152.776 122.688 152.81 122.697 152.841C122.733 153.018 122.736 153.161 122.693 153.206C122.677 153.222 122.661 153.236 122.645 153.247C122.516 153.161 122.296 152.846 122.076 152.384C122.033 152.286 121.986 152.177 121.936 152.059C121.881 151.935 121.822 151.815 121.766 151.701C121.553 151.282 121.337 150.983 121.235 150.983H121.233C121.231 150.983 121.231 150.983 121.229 150.983C121.108 150.983 120.78 151.432 120.478 152.001C120.46 152.039 120.44 152.078 120.42 152.116C119.928 153.088 119.626 153.485 119.626 153.163ZM112.947 143.515C112.847 143.347 113.33 142.76 113.997 142.128C114.769 141.403 115.801 140.61 116.51 140.274C116.741 140.165 116.968 140.063 117.194 139.968H117.197C118.414 139.467 119.506 139.198 120.342 139.198C121.652 139.198 121.408 139.787 120.22 140.068C120.134 140.079 120.05 140.091 119.971 140.104C119.83 140.127 119.687 140.154 119.545 140.186C118.824 140.304 117.906 140.65 117.018 141.108C116.134 141.555 115.311 142.105 114.679 142.695C113.568 143.735 113.194 143.914 112.947 143.515ZM118.198 159.554C117.224 159.214 116.902 158.999 116.959 158.723C117.047 158.297 117.217 158.306 118.946 158.807C119.425 158.947 119.941 159.035 120.524 159.074C121.689 159.185 122.94 159.133 123.769 158.902C124.243 158.77 124.848 158.734 125.118 158.818C125.564 158.961 125.528 159.015 124.712 159.441C123.762 159.937 121.773 160.114 120.059 159.947C119.372 159.869 118.727 159.738 118.198 159.554ZM102.728 140.159C102.8 140.143 103.664 140.548 104.824 141.142C106.15 141.838 107.635 142.672 107.723 142.815C107.875 143.062 107.367 143.241 106.934 143.096C106.436 142.928 102.701 140.317 102.728 140.159ZM145.01 209.223C144.994 209.114 144.985 208.987 144.978 208.837C144.956 208.189 144.908 208.312 144.781 209.343C144.727 209.78 144.654 210.229 144.584 210.573C144.679 209.959 144.634 208.092 144.452 205.148C144.21 201.215 144.069 200.057 143.788 199.738C144.038 200.012 144.19 200.751 144.273 202.072C144.339 203.135 144.475 203.953 144.575 203.892C144.675 203.831 144.699 203.042 144.629 202.142L144.541 200.987L144.643 202.294C144.72 203.28 144.783 204.477 144.783 204.957C144.783 205.29 144.833 205.581 144.906 205.728C144.826 205.599 144.754 205.363 144.72 205.093C144.67 204.688 144.613 205.123 144.597 206.056C144.575 207.226 144.631 207.65 144.783 207.416C144.903 207.228 145.005 206.9 145.005 206.682C145.005 206.673 145.008 206.666 145.01 206.657V209.223ZM50.6189 127.174C50.6982 126.918 50.637 126.558 50.4806 126.368C50.2268 126.062 50.1724 126.064 49.9933 126.383C49.7735 126.778 49.9639 127.639 50.2744 127.639C50.3832 127.639 50.5373 127.43 50.6189 127.174ZM71.0981 158.972C71.0845 158.754 70.9938 158.269 70.8986 157.895C70.7445 157.288 70.7218 157.331 70.6992 158.292C70.6833 158.884 70.774 159.369 70.8986 159.369C71.0233 159.369 71.1139 159.19 71.0981 158.972ZM162.45 198.815C162.436 199.164 162.384 199.577 162.294 199.987C162.371 199.622 162.391 199.328 162.334 199.235C162.239 199.08 162.058 199.307 161.89 199.797C161.561 200.753 160.993 201.53 160.274 202.093C160.78 201.675 161.215 201.143 161.523 200.579C161.822 200.064 162.008 199.543 162.008 199.119C162.008 198.695 162.11 198.351 162.235 198.351C162.368 198.351 162.439 198.527 162.45 198.815ZM69.09 140.048C69.09 139.891 69.192 139.612 69.3121 139.424C69.4844 139.159 69.532 139.223 69.5343 139.708C69.5365 140.05 69.4368 140.331 69.3121 140.331C69.1875 140.331 69.0878 140.204 69.09 140.048ZM68.8657 141.815C68.8611 141.328 68.9269 141.215 69.1082 141.396C69.2872 141.575 69.2895 141.765 69.115 142.065C68.9019 142.432 68.8725 142.402 68.8657 141.815ZM112.657 210.247C112.537 210.029 112.376 209.984 112.088 209.95C111.746 209.912 111.467 209.771 111.467 209.642C111.467 209.51 111.671 209.456 111.92 209.522C112.063 209.558 112.208 209.567 112.315 209.549C112.297 209.565 112.276 209.583 112.256 209.599C111.954 209.821 111.964 209.869 112.335 209.966C112.467 210 112.569 210.079 112.657 210.247ZM47.5547 136.025C47.5547 135.601 47.6159 135.542 47.8267 135.753C48.0374 135.963 48.0374 136.086 47.8267 136.297C47.6159 136.507 47.5547 136.448 47.5547 136.025ZM146.406 205.655C147.156 205.263 148.006 204.923 148.391 204.923C148.187 204.923 147.342 205.229 146.515 205.605L146.406 205.655ZM112.469 209.105C112.415 208.597 112.256 207.632 112.09 206.716C112.106 206.802 112.122 206.888 112.14 206.974C112.369 208.148 112.473 208.758 112.469 209.105ZM144.33 211.398C144.33 211.344 144.427 211.043 144.545 210.73C144.55 210.721 144.552 210.712 144.557 210.7C144.516 210.884 144.477 211.024 144.448 211.099C144.362 211.303 144.355 211.426 144.455 211.462C144.375 211.462 144.33 211.441 144.33 211.398ZM145.218 211.287C145.314 211.249 145.42 211.208 145.533 211.16C146.243 210.863 146.522 210.675 146.397 210.467C146.458 210.535 146.481 210.592 146.458 210.63C146.34 210.82 145.749 211.104 145.218 211.287ZM162.246 200.191C162.205 200.359 162.158 200.522 162.103 200.678C161.673 201.941 160.782 203.006 159.68 203.738C160.795 202.995 161.695 201.902 162.126 200.603C162.171 200.465 162.212 200.325 162.246 200.191ZM145.024 205.83C145.164 205.818 145.851 205.551 146.601 205.216C145.91 205.542 145.214 205.83 145.03 205.83C145.028 205.83 145.026 205.83 145.024 205.83ZM157.836 203.097C156.784 203.228 155.648 203.042 154.563 202.494C155.596 203.017 156.754 203.219 157.836 203.097ZM113.056 214.213C113.147 213.941 113.199 213.683 113.208 213.375C113.215 213.751 113.172 213.996 113.076 214.172L113.056 214.213ZM112.956 211.358C112.891 211.013 112.836 210.757 112.782 210.564C112.841 210.762 112.897 211.02 112.956 211.358ZM113.432 214.959C113.394 214.952 113.357 214.945 113.323 214.941C113.364 214.948 113.405 214.952 113.45 214.959C113.616 214.984 113.783 215.006 113.947 215.025C113.777 215.006 113.604 214.984 113.432 214.959Z" fill="#E1BB59"/>
<path d="M118.417 215.199C118.238 215.022 118.211 213.311 118.383 213.311C118.449 213.311 119.213 213.669 120.078 214.104C121.826 214.983 123.258 215.14 124.108 214.544C125.268 213.732 124.523 212.524 121.039 209.578C119.759 208.497 118.562 207.318 118.376 206.96C117.622 205.501 118.254 204.005 119.806 203.574C120.266 203.445 121.792 203.341 123.195 203.341L125.744 203.339V204.261C125.744 205.113 125.706 205.17 125.234 205.025C124.953 204.936 124.122 204.565 123.387 204.195C122.25 203.624 121.894 203.547 121.008 203.679C119.77 203.864 119.398 204.125 119.398 204.81C119.398 205.53 119.976 206.183 122.798 208.656C125.384 210.92 125.971 211.69 125.971 212.828C125.971 213.732 125.015 214.827 123.974 215.117C123.05 215.373 118.655 215.439 118.417 215.199ZM113.449 214.961C112.746 214.854 112.728 214.82 113.075 214.174C113.259 213.83 113.252 213.227 113.043 211.892C112.819 210.446 112.674 210.056 112.334 209.968C111.962 209.87 111.953 209.823 112.255 209.601C112.561 209.372 112.549 209.086 112.139 206.976C111.885 205.675 111.64 204.572 111.595 204.526C111.45 204.381 108.993 208.855 109.113 209.048C109.175 209.147 109.533 209.231 109.907 209.231C110.281 209.231 110.53 209.324 110.46 209.435C110.389 209.549 109.95 209.592 109.483 209.533C108.64 209.424 108.628 209.433 107.865 210.865C107.121 212.264 107.108 212.327 107.459 213.007C107.905 213.868 107.799 213.991 106.743 213.83C105.557 213.651 105.462 213.458 106.19 212.719C106.546 212.359 107.887 210.194 109.172 207.908C111.006 204.646 111.491 203.608 111.414 203.092C111.33 202.509 111.384 202.432 111.901 202.437C112.223 202.437 112.606 202.516 112.751 202.609C112.898 202.702 113.331 204.56 113.714 206.74C114.768 212.731 114.995 213.839 115.283 214.376C115.428 214.646 115.546 214.924 115.546 214.995C115.546 215.133 114.467 215.115 113.449 214.961ZM128.623 214.97C128.348 214.526 128.197 213.084 128.425 213.084C128.557 213.084 129.4 213.349 130.302 213.676C131.768 214.204 132.036 214.238 132.865 213.993C133.951 213.671 134.583 213.168 134.583 212.626C134.583 211.89 133.65 211.058 131.005 209.437C127.6 207.348 126.878 206.625 126.878 205.308C126.878 203.713 127.759 203.103 130.857 202.561C133.833 202.04 134.046 202.065 134.218 202.928C134.298 203.325 134.284 203.726 134.189 203.817C134.094 203.907 133.251 203.735 132.317 203.434C130.556 202.865 129.826 202.876 128.634 203.486C127.145 204.245 128.072 205.378 132.376 208.06C135.193 209.814 135.716 210.398 135.716 211.797C135.716 213.356 134.416 214.206 131.297 214.68C130.424 214.811 129.493 214.974 129.226 215.04C128.958 215.106 128.686 215.074 128.623 214.97ZM99.794 211.788C98.3775 211.362 98.382 211.366 98.969 210.881C99.5742 210.378 102.28 201.301 102.072 200.472C101.999 200.179 102.029 199.939 102.14 199.939C102.579 199.939 106.892 201.258 107.686 201.634C110.632 203.033 109.691 206.004 106.07 206.752C104.853 207.003 103.93 207.4 102.627 208.236C102.276 208.461 102.353 208.336 102.829 207.908C103.253 207.529 104.229 206.917 104.998 206.55C106.765 205.705 107.613 204.742 107.613 203.579C107.613 202.382 106.935 201.612 105.519 201.19C104.071 200.759 104.064 200.762 103.923 201.242C103.86 201.46 103.334 203.2 102.758 205.109C102.183 207.017 101.759 208.658 101.818 208.753C101.879 208.851 101.711 209.367 101.446 209.904C101.047 210.707 101.007 210.992 101.208 211.527C101.494 212.282 101.455 212.291 99.794 211.788ZM144.447 211.101C144.537 210.883 144.687 210.092 144.78 209.345C144.907 208.313 144.954 208.191 144.977 208.839C145.004 209.576 145.115 209.743 145.793 210.065C146.697 210.496 146.65 210.695 145.532 211.162C144.483 211.6 144.243 211.586 144.447 211.101ZM94.298 209.723C93.0129 209.091 92.8656 208.884 93.5455 208.669C93.8243 208.581 94.7173 207.137 96.0137 204.678C97.1287 202.559 97.956 200.855 97.8517 200.891C97.7452 200.929 96.2584 202.285 94.5496 203.905C90.3114 207.919 90.5584 207.744 89.7176 207.309C89.3391 207.114 89.0309 206.777 89.0331 206.561C89.0354 206.348 89.2371 204.336 89.4819 202.092C90.0009 197.333 90.0054 197.219 89.7085 197.219C89.5839 197.219 89.4819 197.303 89.4819 197.403C89.4819 197.505 88.7566 198.951 87.8705 200.617C86.4744 203.243 86.2749 203.76 86.3769 204.513C86.5084 205.492 86.4177 205.53 85.2958 204.995C84.3236 204.533 84.3009 204.381 85.1599 204.025C85.7015 203.801 86.216 203.01 87.9929 199.674C89.185 197.43 90.1618 195.408 90.1618 195.18C90.1618 194.951 90.223 194.604 90.2978 194.411C90.5086 193.858 91.7483 194.57 91.746 195.243C91.746 195.52 91.4899 198.18 91.1794 201.158C90.8689 204.134 90.6151 206.718 90.6151 206.901C90.6151 207.085 92.4418 205.517 94.6765 203.416C98.0149 200.279 98.7197 199.508 98.6381 199.089C98.5112 198.434 98.756 198.448 100.186 199.173L101.358 199.767L100.775 200.07C100.102 200.424 95.6805 208.542 95.5604 209.646L95.4878 210.308L94.298 209.723ZM151.203 208.066C151.316 207.629 151.105 207.291 150.051 206.228C149.342 205.512 148.594 204.925 148.39 204.925C147.62 204.925 145.009 206.283 145.004 206.684C145.004 206.901 144.902 207.23 144.782 207.418C144.63 207.652 144.574 207.228 144.596 206.058C144.612 205.125 144.669 204.689 144.719 205.095C144.771 205.501 144.909 205.832 145.029 205.832C145.426 205.832 148.182 204.504 148.182 204.311C148.182 204.207 147.354 203.307 146.341 202.314L144.501 200.506L144.628 202.144C144.698 203.044 144.673 203.833 144.574 203.894C144.474 203.955 144.338 203.137 144.272 202.074C144.188 200.753 144.036 200.014 143.787 199.74C143.273 199.173 143.329 198.921 144.046 198.59C144.662 198.305 144.71 198.346 148.862 202.613C151.167 204.984 153.252 207.024 153.492 207.146C153.886 207.346 153.841 207.411 153.039 207.817C152.549 208.064 151.903 208.343 151.604 208.436C151.117 208.585 151.076 208.549 151.203 208.066ZM154.933 204.617C152.832 204.032 151.019 202.237 150.446 200.172C149.87 198.096 150.48 195.971 152.112 194.382C153.447 193.083 154.48 192.687 156.529 192.687C157.821 192.687 159.514 193.212 159.514 193.613C159.514 193.702 159.183 193.972 158.777 194.21C158.061 194.631 158.011 194.633 157.134 194.239C155.96 193.711 153.972 193.702 152.946 194.216C149.9 195.746 150.852 200.619 154.562 202.496C157.535 204 160.867 202.774 161.889 199.798C162.057 199.309 162.238 199.082 162.333 199.236C162.421 199.379 162.326 199.996 162.125 200.605C161.15 203.538 157.791 205.412 154.933 204.617ZM79.9426 200.494C78.6689 200.102 76.9328 198.615 76.3028 197.378C74.8704 194.57 75.9628 191.003 78.7573 189.364C80.2486 188.489 82.5943 188.362 84.2306 189.065C88.2399 190.79 89.1079 196.082 85.876 199.105C84.1785 200.691 82.1365 201.17 79.9426 200.494ZM81.8668 200.143C83.0793 199.808 84.9967 197.947 85.6539 196.471C86.3678 194.862 86.4018 192.288 85.7219 190.987C83.5711 186.862 77.6875 189.928 77.2977 195.377C77.2116 196.596 77.2818 197.129 77.6422 197.942C78.2269 199.261 79.4599 200.222 80.7562 200.365C80.8809 200.379 81.3818 200.279 81.8668 200.143ZM164.86 198.969C164.726 198.081 164.13 196.58 162.19 192.233C161.882 191.547 161.442 190.554 161.209 190.024C160.978 189.493 160.724 189.06 160.647 189.06C160.57 189.06 160.309 188.918 160.069 188.741C159.641 188.428 159.641 188.412 160.062 187.947C160.298 187.687 160.629 187.474 160.796 187.474C160.966 187.474 163.448 188.646 166.313 190.08C169.178 191.515 171.748 192.687 172.024 192.687C172.468 192.687 172.412 192.804 171.526 193.706C170.975 194.266 170.451 194.726 170.361 194.726C170.27 194.726 170.166 194.497 170.125 194.216C170.071 193.831 169.617 193.493 168.267 192.836L166.478 191.966L165.062 193.371L163.643 194.776L164.325 196.281C165.062 197.911 165.254 198.117 166.03 198.121C166.725 198.128 166.671 198.362 165.773 199.232L165.01 199.973L164.86 198.969ZM164.935 193.045L166.15 191.816L163.856 190.665C162.594 190.033 161.515 189.514 161.461 189.514C161.404 189.514 161.83 190.583 162.406 191.893C162.979 193.203 163.512 194.273 163.586 194.273C163.661 194.273 164.269 193.72 164.935 193.045ZM70.1042 190.558C67.7834 189.457 66.5912 187.528 66.5912 184.872C66.5912 183.204 67.2485 181.767 68.5358 180.616C69.8118 179.473 70.8067 179.102 72.6085 179.095C76.0875 179.081 78.5986 181.513 78.6485 184.94C78.6644 186.207 78.2315 187.927 77.8938 187.927C77.8031 187.927 77.5085 187.619 77.2388 187.243C76.7696 186.581 76.7651 186.517 77.1096 185.502C77.5855 184.106 77.5583 182.816 77.0257 181.642C75.4846 178.25 69.882 179.739 68.4973 183.911C68.01 185.375 68.1709 187.381 68.8644 188.503C69.5353 189.588 70.8883 190.45 72.4499 190.787L73.7304 191.062L72.4839 191.08C71.6158 191.091 70.8951 190.932 70.1042 190.558ZM173.892 189.844C173.586 189.019 165.971 183.63 165.103 183.625L164.459 183.621L165.533 182.091C167.795 178.868 168.788 178.274 171.619 178.456C173.024 178.546 173.493 178.685 174.445 179.297C177.042 180.965 178.11 184.335 176.834 186.839C176.369 187.748 174.438 190.42 174.245 190.42C174.168 190.42 174.01 190.162 173.892 189.844ZM176.04 187.617C177.004 186.06 176.428 183.7 174.631 181.846C173.289 180.462 172.169 179.943 170.259 179.818C168.396 179.696 167.362 180.065 166.576 181.128L166.084 181.792L169.656 184.33C171.619 185.726 173.674 187.209 174.22 187.623C174.769 188.04 175.297 188.38 175.392 188.38C175.49 188.38 175.78 188.036 176.04 187.617ZM180.181 180.792C179.823 180.004 171.517 175.831 170.581 175.97C170.227 176.022 169.939 175.979 169.939 175.872C169.939 175.614 173.316 168.889 173.445 168.889C173.731 168.889 175.152 169.678 175.152 169.834C175.152 169.934 174.542 170.324 173.794 170.7C172.661 171.274 172.344 171.57 171.868 172.509C171.555 173.127 171.299 173.739 171.299 173.869C171.299 173.998 172.679 174.791 174.368 175.632C176.947 176.919 177.468 177.107 177.649 176.822C177.826 176.541 177.867 176.561 177.874 176.935C177.881 177.268 178.334 177.617 179.599 178.254C180.541 178.73 181.344 179.088 181.38 179.047C181.414 179.007 181.754 178.358 182.132 177.604C182.81 176.248 182.815 176.214 182.509 174.893C182.336 174.156 182.23 173.52 182.273 173.479C182.402 173.347 183.991 174.177 183.991 174.374C183.991 174.596 180.623 181.355 180.512 181.355C180.471 181.355 180.322 181.101 180.181 180.792ZM60.0617 176.065C59.7036 175.607 59.0396 173.644 59.1937 173.492C59.273 173.413 59.3387 173.456 59.3387 173.59C59.3387 173.724 59.8917 174.143 60.5671 174.526C61.2425 174.907 61.8454 175.299 61.9066 175.398C61.9678 175.498 61.6233 175.747 61.1405 175.951C60.4901 176.23 60.2136 176.26 60.0617 176.065ZM177.044 174.385C176.911 173.669 176.836 173.041 176.879 172.989C177.008 172.844 178.778 173.696 178.778 173.905C178.778 174.007 178.468 174.252 178.087 174.449C177.561 174.718 177.43 174.911 177.536 175.247C177.613 175.489 177.588 175.689 177.482 175.689C177.375 175.689 177.178 175.102 177.044 174.385ZM63.9305 172.232C64.3724 171.054 64.3543 170.956 63.6358 170.585C63.2438 170.381 62.9763 170.163 63.0398 170.097C63.1327 170.007 65.764 171.407 66.1062 171.731C66.2241 171.845 64.556 172.516 64.1594 172.516C63.9735 172.516 63.8715 172.389 63.9305 172.232ZM69.4197 172.119C69.5058 171.901 69.6826 171.212 69.8118 170.589C70.0112 169.624 69.9772 169.288 69.5919 168.323C69.3381 167.69 68.9709 167.156 68.7556 167.112C68.4383 167.049 66.0518 167.933 62.3984 169.463C62.0244 169.619 61.0045 170.025 60.132 170.362C59.2594 170.702 58.4344 171.024 58.2962 171.079C58.09 171.16 57.299 169.56 57.299 169.057C57.299 168.971 57.5891 168.96 57.9426 169.03C58.3914 169.118 59.264 168.885 60.8323 168.25C62.0675 167.752 64.0461 166.967 65.2314 166.51C66.5187 166.013 67.5771 165.447 67.8649 165.107C68.1301 164.792 68.3998 164.622 68.4633 164.728C68.5267 164.835 69.0412 166.095 69.6033 167.529C70.1676 168.964 70.7909 170.517 70.9903 170.981L71.3529 171.829L70.5302 172.171C69.4673 172.618 69.2271 172.606 69.4197 172.119ZM184.777 171.065C184.369 170.44 184.295 170.412 178.447 168.774C176.421 168.205 175.281 167.994 174.764 168.089C174.112 168.212 174.019 168.171 174.019 167.752C174.019 166.872 174.44 166.396 175.218 166.396C176.065 166.396 185.992 165.274 186.459 165.127C186.631 165.073 184.746 163.647 182.266 161.963C178.515 159.413 177.654 158.919 177.135 159.015C176.423 159.148 176.419 159.128 176.777 157.575C177.065 156.327 177.257 156.195 177.835 156.848C178.352 157.433 187.372 159.894 188.218 159.681C188.734 159.552 188.802 159.588 188.671 159.932C188.585 160.155 188.399 160.798 188.256 161.363C188.009 162.348 187.984 162.373 187.637 161.945C187.388 161.637 186.046 161.159 183.349 160.413C181.19 159.817 179.379 159.373 179.327 159.427C179.274 159.479 179.968 160.023 180.868 160.637C182.459 161.718 186.955 164.819 187.143 164.962C187.196 165.002 187.118 165.424 186.976 165.902L186.717 166.77L182.35 167.264C179.95 167.539 177.736 167.761 177.43 167.758C176.346 167.754 177.341 168.144 180.884 169.109C183.88 169.927 184.555 170.045 185.031 169.828C185.913 169.426 186.01 169.506 185.765 170.419C185.444 171.607 185.226 171.75 184.777 171.065ZM56.2995 166.167C56.0525 165.481 55.7012 163.613 55.7986 163.516C55.8553 163.459 56.1091 163.525 56.363 163.661C56.7165 163.851 57.3534 163.797 59.0464 163.432C60.2657 163.171 61.3536 162.872 61.4624 162.768C61.5711 162.664 61.7842 162.627 61.936 162.684C62.4822 162.895 66.4371 161.875 66.9516 161.39L67.457 160.916L67.7834 162.353C67.9647 163.144 68.0848 163.824 68.0508 163.865C68.0168 163.905 67.7992 163.837 67.568 163.715C67.2598 163.55 65.8093 163.765 62.1672 164.52C58.1262 165.356 57.1131 165.642 56.8026 166.029C56.4921 166.419 56.397 166.444 56.2995 166.167ZM90.1618 165.089C90.1618 164.993 90.5698 164.422 91.0684 163.817L91.9749 162.72V148.467V134.213H89.9873H87.9997L86.0483 136.423C84.974 137.638 83.5484 139.272 82.8799 140.052C82.107 140.951 81.6356 141.348 81.5903 141.135C81.5517 140.949 81.7353 139.698 81.9982 138.356C82.2611 137.012 82.583 135.378 82.7099 134.723L82.9411 133.533H94.2572C100.481 133.533 105.578 133.558 105.58 133.59C105.585 133.622 105.925 135.405 106.335 137.556C106.745 139.707 107.022 141.459 106.951 141.45C106.879 141.441 105.41 139.809 103.685 137.824L100.553 134.213H98.5294H96.5077V148.44V162.666L97.4143 163.763C97.9129 164.366 98.3209 164.95 98.3209 165.061C98.3209 165.172 96.4851 165.263 94.2413 165.263C91.9976 165.263 90.1618 165.184 90.1618 165.089ZM131.188 165.093C131.193 165 131.886 164.13 132.732 163.16C134.264 161.401 134.275 161.381 136.131 156.247C137.153 153.414 139.15 147.936 140.562 144.072L143.134 137.046L142.488 135.283L141.84 133.518L144.127 133.583L146.414 133.647L149.43 142.032C151.089 146.645 153.431 153.163 154.634 156.517C156.576 161.934 156.932 162.747 157.825 163.79C158.376 164.438 158.761 165.032 158.68 165.113C158.414 165.381 150.675 165.288 150.675 165.018C150.675 164.882 151.033 164.336 151.468 163.806C151.903 163.273 152.259 162.695 152.254 162.521C152.252 162.346 151.504 160.164 150.593 157.671L148.939 153.138H143.549H138.16L136.711 157.068C135.914 159.23 135.263 161.145 135.263 161.326C135.263 161.508 135.816 162.389 136.494 163.282C137.169 164.175 137.672 164.987 137.613 165.086C137.473 165.313 131.181 165.32 131.188 165.093ZM148.408 151.894C148.408 151.708 147.384 148.804 144.168 139.879C143.672 138.499 143.517 138.374 143.248 139.125C143.123 139.478 142.04 142.452 140.841 145.733C139.642 149.015 138.663 151.794 138.663 151.909C138.663 152.03 140.718 152.118 143.536 152.118C146.588 152.118 148.408 152.034 148.408 151.894ZM54.7017 158.974C54.6178 158.507 54.4886 157.879 54.4161 157.58C54.2937 157.068 54.3323 157.043 55.0303 157.183C56.1431 157.405 64.7328 155.59 65.4014 154.992C65.6801 154.74 65.968 154.593 66.0382 154.663C66.1108 154.733 66.3011 155.366 66.4643 156.066L66.7612 157.34L66.0224 157.201C65.3628 157.079 62.0267 157.589 61.1519 157.949C60.966 158.026 60.5581 158.119 60.2453 158.158C58.5659 158.364 55.5765 159.166 55.3521 159.472C54.9737 159.991 54.8717 159.914 54.7017 158.974ZM177.171 155.613C177.124 155.076 177.239 152.9 177.323 152.818C177.375 152.766 177.649 152.83 177.933 152.959C178.363 153.156 178.889 152.984 181.14 151.918C183.266 150.91 183.764 150.59 183.515 150.391C182.715 149.752 179.388 147.812 179.093 147.812C178.91 147.812 178.511 147.977 178.202 148.177L177.645 148.544V147.383C177.645 146.747 177.706 146.225 177.783 146.225C177.858 146.225 178.214 146.472 178.572 146.774C178.932 147.077 180.376 148.038 181.781 148.911L184.338 150.495L186.513 150.656C188.039 150.767 188.734 150.74 188.845 150.561C189.21 149.972 189.43 150.389 189.43 151.665C189.43 153.024 189.299 153.256 188.805 152.762C188.653 152.61 187.547 152.456 186.21 152.399L183.878 152.299L181.045 153.584C179.485 154.291 177.983 155.085 177.702 155.348C177.421 155.608 177.183 155.728 177.171 155.613ZM63.1916 154.083C63.1916 154.013 63.7537 153.426 64.4381 152.777C65.4626 151.807 65.6847 151.465 65.6847 150.844V150.09L63.5882 150.194C62.4346 150.25 59.9688 150.348 58.1081 150.409C56.2474 150.47 54.6201 150.627 54.4932 150.754C54.0558 151.191 53.9402 150.982 53.8631 149.625C53.8087 148.68 53.8677 148.265 54.0558 148.265C54.2053 148.265 54.398 148.383 54.4864 148.526C54.6042 148.716 56.0547 148.743 59.9552 148.625C62.8743 148.537 65.4104 148.41 65.5872 148.34C65.8569 148.238 65.9113 148.673 65.9113 150.935V153.655L65.0614 153.809C64.5945 153.893 63.9826 154.017 63.7016 154.085C63.4205 154.151 63.1916 154.151 63.1916 154.083ZM65.458 147.392C65.458 146.883 65.1997 146.54 64.2206 145.758C63.5407 145.217 63.0216 144.734 63.0692 144.686C63.1146 144.639 63.7106 144.671 64.3906 144.757L65.6303 144.911L65.7708 145.94C65.9702 147.406 65.9453 148.038 65.6847 148.038C65.56 148.038 65.458 147.748 65.458 147.392Z" fill="#2B262C"/>
<path d="M252.772 147.277L259.899 154.599C257.826 157.147 255.105 159.221 251.735 160.819C248.409 162.417 244.737 163.216 240.72 163.216C236.962 163.216 233.549 162.633 230.482 161.467C227.415 160.257 224.758 158.573 222.512 156.413C220.309 154.253 218.603 151.704 217.393 148.767C216.184 145.786 215.579 142.525 215.579 138.983C215.579 135.484 216.205 132.266 217.458 129.328C218.711 126.347 220.46 123.777 222.707 121.617C224.996 119.458 227.674 117.794 230.741 116.628C233.851 115.419 237.264 114.814 240.979 114.814C244.996 114.814 248.625 115.613 251.865 117.211C255.148 118.81 257.826 120.883 259.899 123.432L252.772 130.754C251.433 128.853 249.727 127.363 247.653 126.283C245.623 125.16 243.398 124.598 240.979 124.598C238.387 124.598 236.055 125.224 233.981 126.477C231.951 127.687 230.352 129.371 229.186 131.531C228.02 133.691 227.437 136.175 227.437 138.983C227.437 141.791 228.02 144.296 229.186 146.499C230.352 148.659 231.951 150.365 233.981 151.618C236.055 152.827 238.387 153.432 240.979 153.432C243.398 153.432 245.623 152.871 247.653 151.748C249.727 150.624 251.433 149.134 252.772 147.277ZM299.21 163.216C295.538 163.216 292.169 162.612 289.102 161.402C286.035 160.193 283.356 158.508 281.067 156.348C278.821 154.188 277.071 151.64 275.819 148.702C274.609 145.722 274.004 142.482 274.004 138.983C274.004 135.484 274.609 132.266 275.819 129.328C277.071 126.391 278.821 123.842 281.067 121.682C283.356 119.522 286.035 117.838 289.102 116.628C292.169 115.419 295.538 114.814 299.21 114.814C302.882 114.814 306.251 115.419 309.318 116.628C312.385 117.838 315.042 119.522 317.288 121.682C319.577 123.842 321.327 126.391 322.536 129.328C323.789 132.266 324.416 135.484 324.416 138.983C324.416 142.482 323.789 145.722 322.536 148.702C321.327 151.64 319.577 154.188 317.288 156.348C315.042 158.508 312.385 160.193 309.318 161.402C306.251 162.612 302.882 163.216 299.21 163.216ZM299.21 153.432C301.888 153.432 304.221 152.827 306.208 151.618C308.238 150.365 309.815 148.659 310.938 146.499C312.104 144.296 312.687 141.791 312.687 138.983C312.687 136.175 312.104 133.691 310.938 131.531C309.815 129.371 308.238 127.687 306.208 126.477C304.221 125.224 301.888 124.598 299.21 124.598C296.575 124.598 294.242 125.224 292.212 126.477C290.182 127.687 288.583 129.371 287.417 131.531C286.294 133.691 285.732 136.175 285.732 138.983C285.732 141.791 286.294 144.296 287.417 146.499C288.583 148.659 290.182 150.365 292.212 151.618C294.242 152.827 296.575 153.432 299.21 153.432ZM373.341 156.478H365.177L347.423 119.544L353.837 119.35V162.18H343.081V115.851H355.522L371.268 148.832H367.38L383.125 115.851H395.307V162.18H384.421V119.35L391.095 119.544L373.341 156.478ZM426.068 162.18H414.923V115.851H434.297C437.753 115.851 440.798 116.477 443.433 117.73C446.068 118.982 448.12 120.732 449.589 122.978C451.057 125.181 451.792 127.773 451.792 130.754C451.792 133.691 451.057 136.283 449.589 138.529C448.12 140.775 446.068 142.525 443.433 143.778C440.798 145.03 437.753 145.657 434.297 145.657H425.42V136.391H434.297C436.198 136.391 437.709 135.894 438.833 134.901C439.956 133.864 440.517 132.482 440.517 130.754C440.517 129.026 439.956 127.665 438.833 126.671C437.709 125.635 436.198 125.116 434.297 125.116H426.068V162.18ZM498.94 153.756H470.041V144.49H498.94V153.756ZM508.789 162.18H496.802L482.935 124.015H485.786L471.855 162.18H460.257L478.335 115.851H490.711L508.789 162.18ZM521.215 154.534L528.537 147.147C529.53 148.486 530.804 149.652 532.36 150.646C533.958 151.64 535.664 152.395 537.478 152.914C539.293 153.432 541.085 153.691 542.857 153.691C544.714 153.691 546.269 153.519 547.522 153.173C548.818 152.784 549.79 152.266 550.438 151.618C551.086 150.927 551.41 150.128 551.41 149.22C551.41 147.925 550.697 146.845 549.271 145.981C547.846 145.074 545.189 144.339 541.301 143.778C537.154 143.173 533.742 142.266 531.064 141.056C528.385 139.803 526.398 138.248 525.102 136.391C523.807 134.49 523.159 132.266 523.159 129.717C523.159 126.823 523.979 124.252 525.621 122.006C527.262 119.76 529.509 118.01 532.36 116.758C535.254 115.462 538.537 114.814 542.209 114.814C546.572 114.814 550.438 115.613 553.807 117.211C557.22 118.81 560.049 120.883 562.295 123.432L555.038 130.818C553.569 128.788 551.669 127.19 549.336 126.024C547.047 124.857 544.714 124.274 542.338 124.274C540.006 124.274 538.105 124.706 536.636 125.57C535.167 126.434 534.433 127.557 534.433 128.939C534.433 129.717 534.714 130.386 535.275 130.948C535.88 131.51 536.917 132.006 538.386 132.438C539.854 132.827 541.885 133.237 544.476 133.669C548.494 134.274 551.842 135.225 554.52 136.52C557.241 137.816 559.272 139.458 560.611 141.445C561.993 143.432 562.684 145.786 562.684 148.508C562.684 151.532 561.82 154.145 560.092 156.348C558.364 158.551 555.989 160.257 552.965 161.467C549.984 162.633 546.528 163.216 542.597 163.216C537.932 163.216 533.763 162.417 530.092 160.819C526.463 159.177 523.504 157.082 521.215 154.534ZM577.678 154.534L585 147.147C585.994 148.486 587.268 149.652 588.823 150.646C590.422 151.64 592.128 152.395 593.942 152.914C595.756 153.432 597.549 153.691 599.32 153.691C601.178 153.691 602.733 153.519 603.985 153.173C605.281 152.784 606.253 152.266 606.901 151.618C607.549 150.927 607.873 150.128 607.873 149.22C607.873 147.925 607.161 146.845 605.735 145.981C604.309 145.074 601.653 144.339 597.765 143.778C593.618 143.173 590.206 142.266 587.527 141.056C584.849 139.803 582.862 138.248 581.566 136.391C580.27 134.49 579.622 132.266 579.622 129.717C579.622 126.823 580.443 124.252 582.084 122.006C583.726 119.76 585.972 118.01 588.823 116.758C591.717 115.462 595 114.814 598.672 114.814C603.035 114.814 606.901 115.613 610.271 117.211C613.683 118.81 616.513 120.883 618.759 123.432L611.502 130.818C610.033 128.788 608.132 127.19 605.8 126.024C603.51 124.857 601.178 124.274 598.802 124.274C596.469 124.274 594.568 124.706 593.1 125.57C591.631 126.434 590.897 127.557 590.897 128.939C590.897 129.717 591.177 130.386 591.739 130.948C592.344 131.51 593.381 132.006 594.849 132.438C596.318 132.827 598.348 133.237 600.94 133.669C604.957 134.274 608.305 135.225 610.983 136.52C613.705 137.816 615.735 139.458 617.074 141.445C618.457 143.432 619.148 145.786 619.148 148.508C619.148 151.532 618.284 154.145 616.556 156.348C614.828 158.551 612.452 160.257 609.428 161.467C606.448 162.633 602.992 163.216 599.061 163.216C594.396 163.216 590.227 162.417 586.555 160.819C582.927 159.177 579.968 157.082 577.678 154.534Z" fill="#2B262C"/>
<path d="M246.45 94.7188H235.305V57.1371H246.45V94.7188ZM260.381 57.785H221.374V48.3896H260.381V57.785ZM308.078 94.7188V48.3896H319.223V94.7188H308.078ZM289.157 94.7188H278.012V48.3896H289.157V94.7188ZM288.509 75.7335V66.4029H308.726V75.7335H288.509ZM372.729 94.7188H338.905V48.3896H372.729V57.6554H350.05V85.4529H372.729V94.7188ZM371.498 76.0575H349.402V66.7917H371.498V76.0575Z" fill="#2B262C"/>
<path d="M244.749 211.766H225.984V208.486H244.749V211.766ZM251.31 221.414H247.402L234.619 189.142H236.259L223.476 221.414H219.713L233.51 186.923H237.513L251.31 221.414ZM308.595 213.069L311.296 215.625C309.817 217.651 307.871 219.259 305.459 220.449C303.079 221.607 300.458 222.186 297.596 222.186C295.12 222.186 292.821 221.736 290.698 220.835C288.608 219.935 286.775 218.681 285.199 217.073C283.655 215.432 282.449 213.519 281.581 211.332C280.713 209.145 280.278 206.765 280.278 204.193C280.278 201.62 280.713 199.24 281.581 197.053C282.481 194.834 283.719 192.921 285.295 191.313C286.871 189.673 288.704 188.402 290.795 187.502C292.917 186.602 295.216 186.151 297.693 186.151C300.555 186.151 303.16 186.746 305.507 187.936C307.887 189.094 309.817 190.686 311.296 192.712L308.595 195.269C307.405 193.5 305.893 192.101 304.06 191.072C302.227 190.043 300.105 189.528 297.693 189.528C295.12 189.528 292.804 190.171 290.746 191.458C288.72 192.712 287.112 194.448 285.922 196.667C284.732 198.854 284.138 201.363 284.138 204.193C284.138 206.991 284.732 209.499 285.922 211.718C287.112 213.905 288.72 215.641 290.746 216.928C292.804 218.182 295.12 218.809 297.693 218.809C300.105 218.809 302.227 218.295 304.06 217.266C305.893 216.236 307.405 214.837 308.595 213.069ZM365.648 211.766H346.883V208.486H365.648V211.766ZM372.209 221.414H368.301L355.518 189.142H357.158L344.375 221.414H340.612L354.409 186.923H358.412L372.209 221.414ZM404.556 221.414V186.923H415.699C419.237 186.923 422.34 187.663 425.009 189.142C427.711 190.621 429.817 192.664 431.329 195.269C432.84 197.841 433.596 200.8 433.596 204.144C433.596 207.489 432.84 210.464 431.329 213.069C429.817 215.674 427.711 217.716 425.009 219.195C422.34 220.674 419.237 221.414 415.699 221.414H404.556ZM408.271 218.037H415.699C418.562 218.037 421.038 217.458 423.128 216.301C425.251 215.143 426.875 213.519 428 211.429C429.158 209.338 429.737 206.91 429.737 204.144C429.737 201.379 429.158 198.967 428 196.909C426.875 194.818 425.251 193.194 423.128 192.036C421.038 190.879 418.562 190.3 415.699 190.3H408.271V218.037ZM489.66 221.414H466.843V186.923H489.66V190.203H470.557V218.134H489.66V221.414ZM488.743 205.399H470.075V202.118H488.743V205.399ZM541.398 218.52H538.6L524.707 189.48H525.962V221.414H522.344V186.923H527.216L541.205 216.252H538.89L552.879 186.923H557.655V221.414H554.037V189.48H555.291L541.398 218.52ZM605.768 221.414H602.054V206.219L589.27 186.923H593.563L604.61 204.144H603.356L614.403 186.923H618.551L605.768 206.315V221.414Z" fill="#2B262C"/>
<path d="M396.109 21.9854C400.574 21.9856 404.193 25.6057 404.193 30.0703C404.193 34.5348 400.574 38.1541 396.109 38.1543C391.645 38.1543 388.025 34.5349 388.024 30.0703C388.024 25.6056 391.645 21.9854 396.109 21.9854Z" stroke="#2B262C" stroke-width="1.97161"/>
<path d="M395.173 33.6914H393.524V26.8379H396.39C396.901 26.8379 397.352 26.9306 397.742 27.1159C398.131 27.3012 398.435 27.56 398.652 27.8923C398.869 28.2182 398.978 28.6016 398.978 29.0425C398.978 29.4771 398.869 29.8605 398.652 30.1928C398.435 30.5251 398.131 30.7839 397.742 30.9692C397.352 31.1545 396.901 31.2472 396.39 31.2472H395.077V29.8765H396.39C396.671 29.8765 396.895 29.803 397.061 29.656C397.227 29.5026 397.31 29.2981 397.31 29.0425C397.31 28.7869 397.227 28.5856 397.061 28.4387C396.895 28.2853 396.671 28.2086 396.39 28.2086H395.173V33.6914ZM399.707 33.6914H397.713L395.422 30.4995H397.301L399.707 33.6914Z" fill="#2B262C"/>
</svg>
